<?xml version="1.0" encoding="UTF-8"?>
<svg width="58px" height="58px" viewBox="0 0 58 58" version="1.1" xmlns="http://www.w3.org/2000/svg" xmlns:xlink="http://www.w3.org/1999/xlink">
    <!-- Generator: Sketch 46.2 (44496) - http://www.bohemiancoding.com/sketch -->
    <title>ic_finish@3x</title>
    <desc>Created with Sketch.</desc>
    <defs></defs>
    <g id="membership" stroke="none" stroke-width="1" fill="none" fill-rule="evenodd">
        <g id="finish-copy" transform="translate(-159.000000, -84.000000)" fill="#FF8100">
            <g id="ic_finish" transform="translate(159.000000, 84.000000)">
                <path d="M28.1797424,10.9417492 L28.1630305,10.9417492 C28.0814373,10.2054441 27.4640814,9.63134237 26.7071322,9.63134237 C25.9492,9.63134237 25.3328271,10.2054441 25.2502508,10.9417492 L25.234522,10.9417492 L25.234522,31.6408678 L41.9001831,39.9122576 L41.9119797,39.8876814 C42.1046576,39.9810712 42.3179797,40.0371051 42.5460475,40.0371051 C43.3590305,40.0371051 44.0186576,39.3764949 44.0186576,38.5625288 C44.0186576,37.9068339 43.5890644,37.3573085 42.9972678,37.1656136 L28.1797424,29.8104271 L28.1797424,10.9417492 Z" id="Fill-1"></path>
                <path d="M51.7914441,15.5291559 C52.6044271,15.5291559 53.2640542,14.8685458 53.2640542,14.0545797 C53.2640542,13.2396305 52.6044271,12.5800034 51.7914441,12.5800034 C50.977478,12.5800034 50.3188339,13.2396305 50.3188339,14.0545797 C50.3188339,14.8685458 50.977478,15.5291559 51.7914441,15.5291559" id="Fill-3"></path>
                <path d="M54.6423898,20.9032983 C55.4563559,20.9032983 56.115,20.2436712 56.115,19.428722 C56.115,18.6147559 55.4563559,17.9541458 54.6423898,17.9541458 C53.8294068,17.9541458 53.1697797,18.6147559 53.1697797,19.428722 C53.1697797,20.2436712 53.8294068,20.9032983 54.6423898,20.9032983" id="Fill-5"></path>
                <path d="M54.7804102,24.8033559 C54.7804102,25.617322 55.4400373,26.2779322 56.2530203,26.2779322 C57.0669864,26.2779322 57.7256305,25.617322 57.7256305,24.8033559 C57.7256305,23.9884068 57.0669864,23.3287797 56.2530203,23.3287797 C55.4400373,23.3287797 54.7804102,23.9884068 54.7804102,24.8033559" id="Fill-7"></path>
                <path d="M56.5272915,28.702922 C55.7133254,28.702922 55.0546814,29.3625492 55.0546814,30.1774983 C55.0546814,30.9924475 55.7133254,31.6520746 56.5272915,31.6520746 C57.3412576,31.6520746 57.9999017,30.9924475 57.9999017,30.1774983 C57.9999017,29.3625492 57.3412576,28.702922 56.5272915,28.702922" id="Fill-9"></path>
                <path d="M55.6683017,34.0774576 C54.8543356,34.0774576 54.1956915,34.7370847 54.1956915,35.5520339 C54.1956915,36.366 54.8543356,37.0266102 55.6683017,37.0266102 C56.4822678,37.0266102 57.1409119,36.366 57.1409119,35.5520339 C57.1409119,34.7370847 56.4822678,34.0774576 55.6683017,34.0774576" id="Fill-11"></path>
                <g id="Group-15">
                    <path d="M53.7353288,39.4516 C53.1641763,39.4516 52.6736339,39.780922 52.4298373,40.2577017 L52.423939,40.2547525 C48.2223797,48.9999729 39.2854644,55.0506508 28.9624475,55.0506508 C14.6167864,55.0506508 2.94502373,43.3641424 2.94502373,28.9998034 C2.94502373,14.6354644 14.6167864,2.94895593 28.9624475,2.94895593 C34.328922,2.94895593 39.316922,4.5916339 43.4634305,7.39234576 L41.3302102,10.1547186 L48.4465153,9.81949831 L48.4494644,9.81654915 C48.5222102,9.80671864 48.5929898,9.76936271 48.6421424,9.70546441 C48.6912949,9.6415661 48.7099729,9.56390508 48.7011254,9.48919322 L48.7040746,9.48722712 L47.2383458,2.5056 L45.270278,5.0536678 C40.6224136,1.86858305 35.0072271,-0.00019661017 28.9624475,-0.00019661017 C12.9927864,-0.00019661017 -0.000196610169,13.0094983 -0.000196610169,28.9998034 C-0.000196610169,44.9910915 12.9927864,57.9998034 28.9624475,57.9998034 C40.4326847,57.9998034 50.3673966,51.2885153 55.0545831,41.5818712 L55.0496678,41.578922 C55.1479729,41.3813288 55.207939,41.1621085 55.207939,40.9261763 C55.207939,40.1112271 54.5492949,39.4516 53.7353288,39.4516" id="Fill-13"></path>
                </g>
            </g>
        </g>
    </g>
</svg>