<?xml version="1.0" encoding="UTF-8"?>
<svg width="13px" height="15px" viewBox="0 0 13 15" version="1.1" xmlns="http://www.w3.org/2000/svg" xmlns:xlink="http://www.w3.org/1999/xlink">
    <!-- Generator: Sketch 46.2 (44496) - http://www.bohemiancoding.com/sketch -->
    <title>ic_jilu@3x</title>
    <desc>Created with Sketch.</desc>
    <defs></defs>
    <g id="membership" stroke="none" stroke-width="1" fill="none" fill-rule="evenodd">
        <g id="首页—提现范围内" transform="translate(-141.000000, -567.000000)" fill="#606470">
            <g id="提现记录" transform="translate(141.000000, 567.000000)">
                <path d="M9.28591886,0 L1.85717482,0 C0.832006623,0 -2.55795385e-13,0.839300184 -2.55795385e-13,1.87445214 L-2.55795385e-13,13.1255479 C-2.55795385e-13,14.1606998 0.832006623,15 1.85717482,15 L11.1430937,15 C12.1680158,15 13,14.1606998 13,13.1255479 L13,3.74967241 L9.28591886,0 L9.28591886,0 Z M12.071558,13.1255479 C12.071558,13.6427511 11.655275,14.0633048 11.1430937,14.0633048 L1.85717482,14.0633048 C1.34421035,14.0633048 0.928732847,13.6427511 0.928732847,13.1255479 L0.928732847,1.87445214 C0.928732847,1.35650339 1.34421035,0.936988852 1.85717482,0.936988852 L7.87930521,0.936988852 C7.87151878,2.06006964 7.89281959,3.74967241 7.89281959,3.74967241 C7.89281959,4.7855925 8.72428921,5.15603679 9.74999441,5.15603679 L12.071558,5.15603679 L12.071558,13.1255479 L12.071558,13.1255479 Z M9.75001678,4.21855091 C9.23705231,4.21855091 8.82155243,3.79876526 8.82155243,3.28079392 L8.82157481,0.936966259 L12.0715804,4.21855091 L9.75001678,4.21855091 L9.75001678,4.21855091 Z M9.28598598,7.96903664 L3.71419302,7.96903664 C3.45835965,7.96903664 3.25036359,8.17826299 3.25036359,8.43737292 C3.25036359,8.69650544 3.45833728,8.90652252 3.71419302,8.90652252 L9.28598598,8.90652252 C9.54184172,8.90652252 9.74956929,8.69650544 9.74956929,8.43737292 C9.74956929,8.17826299 9.54184172,7.96903664 9.28598598,7.96903664 L9.28598598,7.96903664 Z M9.28598598,10.3128869 L3.71419302,10.3128869 C3.45835965,10.3128869 3.25036359,10.5221132 3.25036359,10.7812232 C3.25036359,11.0403557 3.45833728,11.2503728 3.71419302,11.2503728 L9.28598598,11.2503728 C9.54184172,11.2503728 9.74956929,11.0403557 9.74956929,10.7812232 C9.74956929,10.5221132 9.54184172,10.3128869 9.28598598,10.3128869 L9.28598598,10.3128869 Z" id="ic_jilu"></path>
            </g>
        </g>
    </g>
</svg>