<?xml version="1.0" encoding="UTF-8"?>
<svg width="90px" height="90px" viewBox="0 0 90 90" version="1.1" xmlns="http://www.w3.org/2000/svg" xmlns:xlink="http://www.w3.org/1999/xlink">
    <!-- Generator: Sketch 46.2 (44496) - http://www.bohemiancoding.com/sketch -->
    <title>ic_my wallet</title>
    <desc>Created with Sketch.</desc>
    <defs></defs>
    <g id="membership" stroke="none" stroke-width="1" fill="none" fill-rule="evenodd">
        <g id="首页—提现范围内" transform="translate(-143.000000, -144.000000)">
            <g id="Group" transform="translate(0.000000, 144.000000)">
                <g id="ic_my-wallet" transform="translate(143.000000, 0.000000)">
                    <circle id="Oval" fill="#FF8100" cx="45" cy="45" r="45"></circle>
                    <path d="M53.2497778,17.8335296 C51.516,17.4246576 47.8186667,16.984732 44.9699444,17.0002588 C42.1212222,16.984732 38.4238889,17.4246576 36.6901111,17.8335296 C34.4471667,18.3614403 34.1886667,19.7148585 34.831,20.7370385 C35.113,21.1821397 38.5048333,25.4028376 38.5048333,25.4028376 L44.9699444,25.4028376 L51.4324444,25.4028376 C51.4324444,25.4028376 54.8268889,21.1821397 55.1062778,20.7370385 C55.7512222,19.7148585 55.4927222,18.3614403 53.2497778,17.8335296" id="Fill-1" fill="#FFFFFF"></path>
                    <path d="M55.1846111,46.1098766 L55.1846111,49.3290969 L46.7193889,49.3290969 L46.7193889,52.3464689 L55.1846111,52.3464689 L55.1846111,55.5682769 L46.7193889,55.5682769 L46.7193889,61.6547769 L43.2205,61.6547769 L43.2205,55.5682769 L34.7552778,55.5682769 L34.7552778,52.3464689 L43.2205,52.3464689 L43.2205,49.3290969 L34.7552778,49.3290969 L34.7552778,46.1098766 L42.1577778,46.1098766 L33.7395556,37.5054496 L38.2541667,37.4899228 L44.9699444,44.3579376 L51.6857222,37.4899228 L56.2003333,37.5054496 L47.7821111,46.1098766 L55.1846111,46.1098766 Z M51.0982222,27.9513007 L38.8416667,27.9513007 C31.0840556,30.8341073 22,41.8425984 22,51.9117189 C22,64.0691921 28.2823333,69.9176147 44.9673333,69.9176147 C61.6549444,69.9176147 67.8015,64.1752918 67.8041111,52.0204064 C67.8041111,41.9486981 58.6103889,30.671076 51.0982222,27.9513007 L51.0982222,27.9513007 Z" id="Fill-3" fill="#FFFFFF"></path>
                </g>
            </g>
        </g>
    </g>
</svg>