<?xml version="1.0" encoding="utf-8"?>
<!-- Generator: Adobe Illustrator 16.0.0, SVG Export Plug-In . SVG Version: 6.00 Build 0)  -->
<!DOCTYPE svg PUBLIC "-//W3C//DTD SVG 1.1//EN" "http://www.w3.org/Graphics/SVG/1.1/DTD/svg11.dtd">
<svg version="1.1" id="Layer_1" xmlns="http://www.w3.org/2000/svg" xmlns:xlink="http://www.w3.org/1999/xlink" x="0px" y="0px"
	 width="200px" height="200px" viewBox="0 0 200 200" enable-background="new 0 0 200 200" xml:space="preserve">
<path fill="#52BCF6" d="M149.334,140l-40-40L151,58.333c2.666-2.667,2.666-6.667,0-9.333s-6.666-2.667-9.334,0L100,90.667l-40-40
	c-2.667-2.667-6.667-2.667-9.333,0C48,53.333,48,57.333,50.667,60l40,40l-42,41.666c-2.667,2.668-2.667,6.668,0,9.334
	c2.667,2.666,6.667,2.666,9.333,0l42-41.666l40,40c2.666,2.666,6.666,2.666,9.334,0C152,146.666,152,142.666,149.334,140z"/>
</svg>
