<?xml version="1.0" encoding="UTF-8"?>
<svg width="13px" height="17px" viewBox="0 0 13 17" version="1.1" xmlns="http://www.w3.org/2000/svg" xmlns:xlink="http://www.w3.org/1999/xlink">
    <!-- Generator: Sketch 48.2 (47327) - http://www.bohemiancoding.com/sketch -->
    <title>Path 8</title>
    <desc>Created with Sketch.</desc>
    <defs></defs>
    <g id="提交成功" stroke="none" stroke-width="1" fill="none" fill-rule="evenodd" transform="translate(-123.000000, -429.000000)">
        <g id="Group" transform="translate(123.000000, 427.000000)" fill="#414042">
            <path d="M0.774435805,2.97673663 L3.46428066,2 C4.3945266,2.60054425 4.91329764,3.12840381 5.02059377,3.58357868 C5.18153797,4.26634099 5.85542692,5.08673042 5.43801035,5.48089175 C5.02059377,5.87505308 3.93915258,6.70480255 3.70171662,7.06707044 C3.46428066,7.42933833 4.43513761,9.82238641 4.62498254,10.4356418 C4.81482748,11.0488972 6.47532168,13.3011982 6.86539504,13.7191062 C7.25546841,14.1370143 7.75751048,15.314125 9.18247236,14.1370143 C10.6074342,12.9599037 12.8423089,16.0884076 12.8701713,16.4641955 C12.8980336,16.8399834 13.5354073,17.8501735 11.7070466,18.5447225 C9.87868582,19.2392715 8.78253467,19.2361515 7.24958443,17.8501735 C5.71663418,16.4641955 2.32330741,13.7679864 0.774435805,8.50054195 C-0.258145268,4.98891231 -0.258145268,3.14764387 0.774435805,2.97673663 Z" id="Path-8"></path>
        </g>
    </g>
</svg>