<?xml version="1.0" encoding="UTF-8"?>
<svg width="16px" height="16px" viewBox="0 0 16 16" version="1.1" xmlns="http://www.w3.org/2000/svg" xmlns:xlink="http://www.w3.org/1999/xlink">
    <!-- Generator: Sketch 48.2 (47327) - http://www.bohemiancoding.com/sketch -->
    <title>Combined Shape</title>
    <desc>Created with Sketch.</desc>
    <defs></defs>
    <g id="店铺推广" stroke="none" stroke-width="1" fill="none" fill-rule="evenodd" transform="translate(-344.000000, -176.000000)">
        <g id="Group-21" fill="#FFFFFF" fill-rule="nonzero">
            <g id="Group-4-Copy-2" transform="translate(250.000000, 164.000000)">
                <g id="Group" transform="translate(95.000000, 13.000000)">
                    <path d="M7,14.5 C2.85786438,14.5 -0.5,11.1421356 -0.5,7 C-0.5,2.85786438 2.85786438,-0.5 7,-0.5 C11.1421356,-0.5 14.5,2.85786438 14.5,7 C14.5,11.1421356 11.1421356,14.5 7,14.5 Z M7,13.5 C10.5898509,13.5 13.5,10.5898509 13.5,7 C13.5,3.41014913 10.5898509,0.5 7,0.5 C3.41014913,0.5 0.5,3.41014913 0.5,7 C0.5,10.5898509 3.41014913,13.5 7,13.5 Z M7,4.375 C6.51675084,4.375 6.125,3.98324916 6.125,3.5 C6.125,3.01675084 6.51675084,2.625 7,2.625 C7.48324916,2.625 7.875,3.01675084 7.875,3.5 C7.875,3.98324916 7.48324916,4.375 7,4.375 Z M6.125,6.12756316 C6.125,5.64289841 6.51338172,5.25 7,5.25 C7.48324916,5.25 7.875,5.63314618 7.875,6.12756316 L7.875,10.4974368 C7.875,10.9821016 7.48661828,11.375 7,11.375 C6.51675084,11.375 6.125,10.9918538 6.125,10.4974368 L6.125,6.12756316 Z" id="Combined-Shape"></path>
                </g>
            </g>
        </g>
    </g>
</svg>