<?xml version="1.0" encoding="utf-8"?>
<!-- Generator: Adobe Illustrator 16.0.0, SVG Export Plug-In . SVG Version: 6.00 Build 0)  -->
<!DOCTYPE svg PUBLIC "-//W3C//DTD SVG 1.1//EN" "http://www.w3.org/Graphics/SVG/1.1/DTD/svg11.dtd">
<svg version="1.1" id="Layer_1" xmlns="http://www.w3.org/2000/svg" xmlns:xlink="http://www.w3.org/1999/xlink" x="0px" y="0px"
	 width="16px" height="16px" viewBox="0 0 16 16" enable-background="new 0 0 16 16" xml:space="preserve">
<title>Combined Shape</title>
<desc>Created with Sketch.</desc>
<g id="店铺推广" transform="translate(-344.000000, -176.000000)">
	<g id="Group-21">
		<g id="Group-4-Copy-2" transform="translate(250.000000, 164.000000)">
			<g id="Group" transform="translate(95.000000, 13.000000)">
				<path id="Combined-Shape" fill="#A7A9AE" d="M7,14.5c-4.142,0-7.5-3.357-7.5-7.5c0-4.142,3.358-7.5,7.5-7.5
					c4.143,0,7.5,3.358,7.5,7.5C14.5,11.143,11.143,14.5,7,14.5z M7,13.5c3.59,0,6.5-2.91,6.5-6.5S10.59,0.5,7,0.5S0.5,3.41,0.5,7
					S3.41,13.5,7,13.5z M7,4.375c-0.483,0-0.875-0.392-0.875-0.875S6.517,2.625,7,2.625S7.875,3.017,7.875,3.5S7.483,4.375,7,4.375z
					 M6.125,6.127C6.125,5.643,6.513,5.25,7,5.25c0.483,0,0.875,0.383,0.875,0.877v4.371c0,0.484-0.388,0.877-0.875,0.877
					c-0.483,0-0.875-0.383-0.875-0.877V6.127z"/>
			</g>
		</g>
	</g>
</g>
</svg>
