<?xml version="1.0" encoding="UTF-8"?>
<svg width="25px" height="23px" viewBox="0 0 25 23" version="1.1" xmlns="http://www.w3.org/2000/svg" xmlns:xlink="http://www.w3.org/1999/xlink">
    <!-- Generator: Sketch Beta 50 (54800) - http://www.bohemiancoding.com/sketch -->
    <title>Group</title>
    <desc>Created with Sketch Beta.</desc>
    <defs></defs>
    <g id="收银员" stroke="none" stroke-width="1" fill="none" fill-rule="evenodd">
        <g id="兑换验券_无数据" transform="translate(-324.000000, -82.000000)">
            <g id="redeem_section" transform="translate(15.000000, 74.000000)">
                <g id="Group-15" transform="translate(297.000000, 0.000000)">
                    <g id="ic_scan">
                        <g id="Group" transform="translate(12.000000, 8.000000)">
                            <rect id="Rectangle-1351" fill="#FFFFFF" x="0" y="11" width="25" height="1" rx="0.5"></rect>
                            <path d="M1.5,7.5 L1.5,3.5 C1.5,1.84314575 2.84314575,0.5 4.5,0.5 L8.5,0.5" id="Rectangle-24" stroke="#FFFFFF" stroke-linecap="round" stroke-linejoin="round"></path>
                            <path d="M16.5,7.5 L16.5,3.5 C16.5,1.84314575 17.8431458,0.5 19.5,0.5 L23.5,0.5" id="Rectangle-24" stroke="#FFFFFF" stroke-linecap="round" stroke-linejoin="round" transform="translate(20.000000, 4.000000) scale(-1, 1) translate(-20.000000, -4.000000) "></path>
                            <path d="M1.5,22.5 L1.5,18.5 C1.5,16.8431458 2.84314575,15.5 4.5,15.5 L8.5,15.5" id="Rectangle-24" stroke="#FFFFFF" stroke-linecap="round" stroke-linejoin="round" transform="translate(5.000000, 19.000000) scale(1, -1) translate(-5.000000, -19.000000) "></path>
                            <path d="M16.5,22.5 L16.5,18.5 C16.5,16.8431458 17.8431458,15.5 19.5,15.5 L23.5,15.5" id="Rectangle-24" stroke="#FFFFFF" stroke-linecap="round" stroke-linejoin="round" transform="translate(20.000000, 19.000000) scale(-1, -1) translate(-20.000000, -19.000000) "></path>
                        </g>
                    </g>
                </g>
            </g>
        </g>
    </g>
</svg>