<?xml version="1.0" encoding="UTF-8" standalone="no"?>
<svg width="24px" height="24px" viewBox="0 0 24 24" version="1.1" xmlns="http://www.w3.org/2000/svg" xmlns:xlink="http://www.w3.org/1999/xlink">
    <!-- Generator: Sketch Beta 39 (31533) - http://www.bohemiancoding.com/sketch -->
    <title>ic_京东@2x</title>
    <desc>Created with Sketch Beta.</desc>
    <defs>
        <polygon id="path-1" points="21 11.7589296 21 4 3 4 3 11.7589296 3 19.5178592 21 19.5178592 21 11.7589296"></polygon>
    </defs>
    <g id="Page-1" stroke="none" stroke-width="1" fill="none" fill-rule="evenodd">
        <g id="到账详情1" transform="translate(-30.000000, -420.000000)">
            <g id="分笔到账" transform="translate(14.000000, 284.000000)">
                <g id="ic_京东" transform="translate(16.000000, 136.000000)">
                    <rect id="Rectangle-377" fill="#FE3B40" x="0" y="0" width="24" height="24" rx="3"></rect>
                    <mask id="mask-2" fill="white">
                        <use xlink:href="#path-1"></use>
                    </mask>
                    <g id="Clip-2"></g>
                    <path d="M4.53947368,7.07894737 L10.1052632,7.07894737 L10.1052632,6.36842105 L4.53947368,6.36842105 L4.53947368,7.07894737 Z M6.45528947,10.5215658 C6.3255,10.6359605 6.19736842,10.6952895 5.84210526,10.6994342 L5.84210526,11.3342895 C6.55263158,11.3122632 7.04407895,11.1641184 7.36215789,10.8880789 C7.67810526,10.6120395 7.85526316,10.1885658 7.85526316,9.62156579 L7.85526316,7.78947368 L11.2894737,7.78947368 L11.2894737,7.80877632 L11.2894737,5.65789474 L3.35526316,5.65789474 L3.35526316,7.80877632 L3.35526316,7.78947368 L6.67105263,7.78947368 L6.67105263,9.84585526 C6.67105263,10.2217237 6.58484211,10.4082368 6.45528947,10.5215658 L6.45528947,10.5215658 Z" id="Fill-1" fill="#FFFFFF" mask="url(#mask-2)"></path>
                    <polygon id="Fill-3" fill="#FFFFFF" mask="url(#mask-2)" points="11.6447368 4.59206974 7.85526316 4.59206974 7.85526316 4.11838553 6.67105263 4.11838553 6.67105263 4.59206974 3 4.59206974 3 5.30259605 11.6447368 5.30259605"></polygon>
                    <path d="M5.56014474,8.26312237 L4.25277632,8.26312237 C4.09361842,9.44733289 3.55811842,10.6315434 3.05601316,11.2236487 L3.73456579,11.2236487 C5.18261842,10.0394382 5.56014474,8.26312237 5.56014474,8.26312237" id="Fill-4" fill="#FFFFFF" mask="url(#mask-2)"></path>
                    <path d="M10.9239197,11.2236487 L11.6012882,11.2236487 C11.1003671,10.6315434 10.5645118,9.44733289 10.4052355,8.26312237 L9.09834079,8.26312237 C9.09834079,8.26312237 9.47539342,10.0394382 10.9239197,11.2236487" id="Fill-5" fill="#FFFFFF" mask="url(#mask-2)"></path>
                    <path d="M14.7885197,8.26312237 L13.4764145,8.26312237 C13.3164276,9.56575395 12.7789145,10.6315434 12.2749145,11.2236487 L12.9560724,11.2236487 C14.4098092,10.0394382 14.7885197,8.26312237 14.7885197,8.26312237" id="Fill-6" fill="#FFFFFF" mask="url(#mask-2)"></path>
                    <path d="M18.3408197,8.26312237 C18.3408197,8.26312237 18.7198855,10.0394382 20.1742145,11.2236487 L20.8545434,11.2236487 C20.3508987,10.6315434 19.8130303,9.56575395 19.6535171,8.26312237 L18.3408197,8.26312237 Z" id="Fill-7" fill="#FFFFFF" mask="url(#mask-2)"></path>
                    <path d="M15.292425,4.59206974 L15.5259513,3.99996447 L14.3244513,3.99996447 L14.0880829,4.59206974 L12.3552276,4.59206974 L12.3552276,5.30259605 L13.7768724,5.30259605 L12.567675,7.78943816 L16.0262803,7.78943816 L16.0262803,9.85635921 C16.0262803,10.2501092 15.9410171,10.4211092 15.8111092,10.534675 C15.6795434,10.649425 15.5525961,10.7091092 15.1973329,10.7134908 L15.1973329,11.3507145 C15.9078592,11.3286882 16.3996618,11.1800697 16.7184513,10.9030829 C17.0365303,10.6256224 17.2104908,10.2007276 17.2104908,9.63159605 L17.2104908,7.78943816 L20.5262803,7.78943816 L20.5262803,7.78434605 L20.5262803,7.07891184 L17.2104908,7.07891184 L17.2104908,5.77628026 L16.0262803,5.77628026 L16.0262803,7.07891184 L14.0972013,7.07891184 L14.9850039,5.30259605 L20.7631224,5.30259605 L20.7631224,4.59206974 L15.292425,4.59206974 Z" id="Fill-8" fill="#FFFFFF" mask="url(#mask-2)"></path>
                    <path d="M5.13183947,12.2894382 L4.04118158,12.2894382 C3.99037895,12.9999645 3.69847105,13.4465303 3.00002368,13.8081882 L3.00002368,14.3497276 C3.58206316,14.202175 4.10323421,14.0657539 4.45518158,13.7104908 L6.31581316,13.7104908 L6.31581316,12.9999645 L4.90672105,12.9999645 C5.03212895,12.8815434 5.10661579,12.5262803 5.13183947,12.2894382" id="Fill-9" fill="#FFFFFF" mask="url(#mask-2)"></path>
                    <polygon id="Fill-10" fill="#FFFFFF" mask="url(#mask-2)" points="5.36842105 14.8947013 6.07894737 14.8947013 6.07894737 14.184175 3.35526316 14.184175 3.35526316 14.8947013 4.18421053 14.8947013 4.18421053 15.6052276 3.11842105 15.6052276 3.11842105 16.1973329 4.18421053 16.1973329 4.18421053 19.1345303 6.31578947 18.3381487 6.31578947 17.6366224 5.36842105 18.0506224 5.36842105 16.1973329 6.31578947 16.1973329 6.31578947 15.6052276 5.36842105 15.6052276"></polygon>
                    <path d="M9.50240526,17.9513855 C10.8929053,16.9721618 11.2098,15.9604908 11.2098,15.9604908 L10.1030368,15.9604908 C10.1030368,15.9604908 9.84369474,16.4886487 9.06993158,17.1881618 C8.85855,16.6367934 8.76523421,15.9604908 8.73420789,15.3683855 L11.4079184,15.3683855 L11.4079184,14.7762803 L8.72201053,14.7762803 C8.72355,14.5394382 8.73065526,14.3025961 8.74072105,14.0657539 L11.4079184,14.0657539 L11.4079184,13.4736487 L10.6973921,13.4736487 L10.6973921,12.5262803 L9.75002368,12.5262803 L9.75002368,13.4736487 L8.77837895,13.4736487 C8.80987895,12.9999645 8.84268158,12.5262803 8.84268158,12.2894382 L7.63407632,12.2894382 C7.63407632,12.5262803 7.61347105,12.9999645 7.60008947,13.4736487 L6.67107632,13.4736487 L6.67107632,14.0657539 L7.58883947,14.0657539 C7.58812895,14.3025961 7.59108947,14.5394382 7.59961579,14.7762803 L6.67107632,14.7762803 L6.67107632,15.3683855 L7.63999737,15.3683855 C7.71768158,16.0789118 7.90064211,17.0422671 8.29723421,17.7623855 C8.21670789,17.8188724 8.09615526,17.8619776 8.00899737,17.9189382 C7.55331316,18.2167671 7.14476053,18.4102671 6.78949737,18.5361487 L6.78949737,19.1359513 C7.61844474,18.9053855 8.09745789,18.6760039 8.45236579,18.5047671 C8.54023421,18.4624908 8.63970789,18.4193855 8.72224737,18.375925 C9.33033947,19.064425 10.1052868,19.5178592 11.6447605,19.5178592 L11.6447605,18.9034908 C10.5789711,18.8621618 9.94470789,18.5195697 9.50240526,17.9513855" id="Fill-11" fill="#FFFFFF" mask="url(#mask-2)"></path>
                    <path d="M19.1052632,13.4736487 L19.1052632,16.1059118 L19.1052632,16.3409776 C19.1052632,16.686175 19.0517368,16.8576487 18.9326053,16.9611487 C18.8137105,17.0665434 18.6315789,17.1208987 18.3947368,17.1244513 L18.3947368,17.7061355 C18.9868421,17.6860039 19.4630132,17.5505303 19.7538553,17.2979382 C20.0443421,17.0441618 20.1710526,16.6552671 20.1710526,16.1353987 L20.1710526,16.0599645 L20.1710526,12.7631224 L19.0981579,12.7631224 L15.2641579,12.7631224 C15.3636316,12.6447013 15.4523289,12.4078592 15.5281184,12.1710171 L14.2456184,12.1710171 C13.9945658,12.9999645 13.4210526,13.5727671 12.4736842,13.9127539 L12.4736842,14.4869776 C13.5394737,14.2746487 14.2700132,13.9473329 14.7731842,13.4736487 L19.1052632,13.4736487 Z" id="Fill-12" fill="#FFFFFF" mask="url(#mask-2)"></path>
                    <path d="M16.7368421,15.0131224 L16.7368421,16.434175 L14.6269342,16.434175 C14.6265789,15.8420697 14.6262237,15.4868066 14.6258684,15.0131224 L16.7368421,15.0131224 Z M14.6278816,18.2932671 C14.6277632,18.0053855 14.6276447,17.6183855 14.6272895,17.0262803 L17.8026316,17.0262803 L17.8026316,14.3025961 L14.6253947,14.3025961 L14.6226711,14.3025961 L13.6578947,14.3025961 L13.6578947,18.6472276 C13.6578947,18.9975171 13.8645395,19.2762803 14.2176711,19.2762803 L21,19.2762803 L21,18.684175 L14.9753289,18.684175 C14.7808816,18.684175 14.6278816,18.4902013 14.6278816,18.2932671 L14.6278816,18.2932671 Z" id="Fill-13" fill="#FFFFFF" mask="url(#mask-2)"></path>
                </g>
            </g>
        </g>
    </g>
</svg>