<?xml version="1.0" encoding="UTF-8" standalone="no"?>
<svg width="24px" height="24px" viewBox="0 0 24 24" version="1.1" xmlns="http://www.w3.org/2000/svg" xmlns:xlink="http://www.w3.org/1999/xlink">
    <!-- Generator: Sketch Beta 39 (31533) - http://www.bohemiancoding.com/sketch -->
    <title>ic_QQ@3x</title>
    <desc>Created with Sketch Beta.</desc>
    <defs></defs>
    <g id="Page-1" stroke="none" stroke-width="1" fill="none" fill-rule="evenodd">
        <g id="ic_QQ">
            <rect id="Rectangle-377" fill="#12B7F5" x="0" y="0" width="24" height="24" rx="3"></rect>
            <path d="M17.2026445,9.44903444 C17.1460081,6.40201662 14.842185,4.0246037 12.0000419,4 C9.1576248,4.0246037 6.8539844,6.40201662 6.79689124,9.44903444 C6.79689124,10.5783353 6.28807702,11.4872089 5.63483994,12.6889489 C4.66918911,14.4664522 4.96799186,16.787798 5.46164214,16.787798 C5.77999359,16.787798 6.38353678,16.4214863 6.85763836,15.7746559 C7.11624753,16.5494439 7.53490023,17.22225 8.10975982,17.7563973 C7.29675325,17.9998734 6.75624091,18.4313071 6.77935222,18.8976799 C6.81287732,19.5703946 8.00936721,20.0613711 9.45204279,19.9937795 C10.5714341,19.9413709 11.5071224,19.5671019 11.855071,19.0874668 C11.9038514,19.0884729 11.9501653,19.0913083 12.0000419,19.0913083 C12.0511974,19.0913083 12.0986075,19.0884729 12.1486668,19.0874668 C12.4959759,19.5671019 13.4302027,19.9413709 14.5501421,19.9937795 C15.9906253,20.0613711 17.1867498,19.5703946 17.2202749,18.8976799 C17.2437516,18.4311242 16.7032392,17.9998734 15.8904154,17.7562144 C16.465549,17.22225 16.8831969,16.5500841 17.1414406,15.7748388 C17.6170951,16.4217607 18.2195421,16.787798 18.5381676,16.787798 C19.032366,16.787798 19.3308034,14.4664522 18.3644217,12.6889489 C17.7114587,11.4872089 17.2026445,10.5783353 17.2026445,9.44903444 Z" id="Fill-1" fill="#FFFFFF"></path>
        </g>
    </g>
</svg>