<?xml version="1.0" encoding="UTF-8" standalone="no"?>
<svg width="24px" height="24px" viewBox="0 0 24 24" version="1.1" xmlns="http://www.w3.org/2000/svg" xmlns:xlink="http://www.w3.org/1999/xlink" xmlns:sketch="http://www.bohemiancoding.com/sketch/ns">
    <!-- Generator: Sketch Beta 3.5 (25218) - http://www.bohemiancoding.com/sketch -->
    <title>ic_weixin</title>
    <desc>Created with Sketch Beta.</desc>
    <defs></defs>
    <g id="Page-1" stroke="none" stroke-width="1" fill="none" fill-rule="evenodd" sketch:type="MSPage">
        <g id="核算-copy-6" sketch:type="MSArtboardGroup" transform="translate(-30.000000, -310.000000)">
            <g id="明细" sketch:type="MSLayerGroup" transform="translate(14.000000, 221.000000)">
                <g id="ic_weixin" transform="translate(16.000000, 89.000000)" sketch:type="MSShapeGroup">
                    <rect id="Rectangle-377" fill="#7ED321" x="0" y="0" width="24" height="24" rx="3"></rect>
                    <path d="M9.075,10.3806042 L7.90479487,13.08969 C7.4545582,14.3771227 8.29452138,13.6701842 8.29452138,13.6701842 C8.29452138,13.6701842 9.01517355,13.1292461 9.56215812,12.7996119 C10.1088008,12.4699777 10.7320214,12.7029192 10.7320214,12.7029192 L18.3822844,16.2061698 C16.9707223,17.9483286 14.6392006,19.0876795 11.9996581,19.0876795 C7.69181277,19.0876795 4.2,16.0557213 4.2,12.3154723 C4.2,10.164229 5.35618864,8.24930804 7.15713535,7.00853121 L6.83236326,5.15615623 C6.83236326,5.15615623 6.67407959,4.6155562 7.2227735,4.86641625 C7.59677419,5.03714984 8.54989482,5.65010036 9.11739131,6.02300958 C10.009318,5.71467485 10.9812412,5.54326508 12,5.54326508 C16.3075035,5.54326508 19.8,8.57522326 19.8,12.3154723 C19.8,13.399039 19.5056539,14.4220882 18.9843093,15.3301881 C16.5471511,13.8754026 10.877656,10.4942012 10.1470898,10.0908643 C9.21345547,9.57426835 9.075,10.3806042 9.075,10.3806042 Z" id="ic_wxpay_bottom-copy" fill="#FFFFFF" transform="translate(12.000000, 11.943840) scale(1, -1) translate(-12.000000, -11.943840) "></path>
                </g>
            </g>
        </g>
    </g>
</svg>