<?xml version="1.0" encoding="UTF-8" standalone="no"?>
<svg width="24px" height="25px" viewBox="0 0 24 25" version="1.1" xmlns="http://www.w3.org/2000/svg" xmlns:xlink="http://www.w3.org/1999/xlink" xmlns:sketch="http://www.bohemiancoding.com/sketch/ns">
    <!-- Generator: Sketch Beta 3.5 (25218) - http://www.bohemiancoding.com/sketch -->
    <title>ic_zfb</title>
    <desc>Created with Sketch Beta.</desc>
    <defs>
        <rect id="path-1" x="0" y="0" width="24" height="24" rx="3"></rect>
    </defs>
    <g id="Page-1" stroke="none" stroke-width="1" fill="none" fill-rule="evenodd" sketch:type="MSPage">
        <g id="核算-copy-6" sketch:type="MSArtboardGroup" transform="translate(-30.000000, -263.000000)">
            <g id="明细" sketch:type="MSLayerGroup" transform="translate(14.000000, 221.000000)">
                <g id="ic_zfb" transform="translate(28.000000, 54.454015) scale(1, -1) translate(-28.000000, -54.454015) translate(16.000000, 42.454015)">
                    <mask id="mask-2" sketch:name="Mask Copy" fill="white">
                        <use xlink:href="#path-1"></use>
                    </mask>
                    <use id="Mask-Copy" fill="#FFFFFF" sketch:type="MSShapeGroup" xlink:href="#path-1"></use>
                    <rect id="Rectangle-808" fill="#00AAEE" sketch:type="MSShapeGroup" mask="url(#mask-2)" x="0" y="0" width="24" height="24"></rect>
                    <path d="M0,6.23775626 C9.11519045e-17,5.15850418 6.27022476,3 6.27022476,3 L19.3702927,3 C19.3702927,3 24,5.90001742 24,7.35002613 L24,20.4 L0,20.4 L0,6.23775626 Z" id="Rectangle-351" fill="#FFFFFF" sketch:type="MSShapeGroup" mask="url(#mask-2)"></path>
                    <path d="M24,19.3857116 C24,21.9328708 21.933,24 19.3845,24 L4.614,24 C2.06700001,24 0,21.9328708 0,19.3857116 L0,4.61428839 C0,2.0671292 2.06550001,8.34887715e-14 4.614,8.34887715e-14 L19.3845,8.34887715e-14 C21.654,8.34887715e-14 23.5425,1.64110257 23.928,3.79973749 C22.704,4.3292706 17.4,6.61991376 14.637,7.93849615 C12.534,5.39133697 10.332,3.86274142 7.01250001,3.86274142 C3.69300001,3.86274142 1.4775,5.90736921 1.74300002,8.4095256 C1.91850001,10.0521283 3.04500001,12.7372961 7.938,12.2767673 C10.5165,12.0352522 11.697,11.5537221 13.8,10.8591787 C14.3445,11.856741 14.796,12.9548097 15.1395,14.1233827 L5.81399999,14.1233827 L5.81399999,15.0474405 L10.428,15.0474405 L10.428,16.7065442 L4.8,16.7065442 L4.8,17.7236077 L10.428,17.7236077 L10.428,20.1177573 C10.428,20.1177573 10.479,20.4927808 10.893,20.4927808 L13.2,20.4927808 L13.2,17.7236077 L19.2,17.7236077 L19.2,16.7065442 L13.2,16.7065442 L13.2,15.0474405 L18.0945,15.0474405 C17.6445,13.215826 16.962,11.5327208 16.107,10.0626289 C17.529,9.54809674 24,7.5694731 24,7.5694731 L24,19.3857116 Z M6.645,5.44684043 C3.13799999,5.44684043 2.583,7.66097882 2.769,8.58653665 C2.95350001,9.50759423 3.969,10.7091693 5.91899999,10.7091693 C8.15999999,10.7091693 10.167,10.1361335 12.576,8.9630602 C10.884,6.75942246 8.80500001,5.44684043 6.645,5.44684043 L6.645,5.44684043 L6.645,5.44684043 Z" id="Shape" fill="#00AAEE" sketch:type="MSShapeGroup" mask="url(#mask-2)">
                        <g transform="translate(12.000000, 12.000000) scale(1, -1) translate(-12.000000, -12.000000) "></g>
                    </path>
                </g>
            </g>
        </g>
    </g>
</svg>